Patient4_TMGait_0pt4_02_left_12_EMG.mot
version=1
nRows=20
nColumns=33
inDegrees=no
endheader
time	1LAddLong	2LGlutMax	3LGlutMed	4LIliopsoas	5LSemiMemb	6LBicFemLong	7LRecFem	8LVastMed	9LVastLat	10LGasMed	11LTibAnt	12lTibPost	13LPeroneusLong	14LSol	15LExtDigLong	16LFlexDigLong	17RAddLong	18RGlutMax	19RGlutMed	20RIliopsoas	21RSemiMemb	22RBicFemLong	23RRecFem	24RVastMed	25RVastLat	26RGasMed	27RTibAnt	28RTibPost	29RPeroneusLong	30RSol	31RExtDigLong	32RFlexDigLong
16.935	0.002899	0.15427	-0.25971	0.005035	0.017242	-0.032196	-0.10376	0.006104	-0.048828	-0.041809	0.019836	0.004578	0.024567	-0.016632	0.052185	0.007477	0.35614	0.1944	0.10162	-0.071716	-0.22659	-0.43015	0.15259	-0.39612	-0.11505	-0.004883	0.082092	-0.006409	-0.05661	-0.032959	-0.001221	-0.004425
16.936	0.009308	0.16098	-0.26367	0.007324	0.014801	-0.032196	-0.16632	0.00824	-0.052948	-0.011292	-0.041962	0.00473	-0.005646	0.008698	0.23178	0.000458	0.40543	0.20142	0.12054	-0.06897	-0.41718	-0.63599	0.001984	-0.7872	0.050201	-0.000458	0.12787	-0.002594	-0.033569	-0.032043	0.001678	0.008087
16.937	-0.000916	0.17975	-0.2832	0.009003	0.014496	-0.031738	-0.15656	0.009003	-0.055542	-0.020752	-0.011444	0.00061	-0.043335	-0.019989	0.049744	0.014191	0.35782	0.14572	0.10971	0.000305	-0.60288	-0.69977	-0.14648	-0.97336	0.14175	0.003204	0.055389	-0.008392	0.007629	-0.033569	0.000458	0.003204
16.938	-0.003204	0.15747	-0.29755	0.01236	0.023041	-0.009308	-0.1387	0.011902	-0.064087	-0.081635	0.10956	0.009613	-0.042419	0.019684	0.012512	0.013885	0.26077	0.099945	0.22492	0.084381	-0.59158	-0.30258	-0.26154	-0.75165	0.17716	-0.003052	-0.020447	-0.002594	0.000458	-0.061493	0.005035	-0.008698
16.939	-0.006561	0.15656	-0.33142	0.006256	0.006256	0.043182	-0.16434	0.014954	-0.084534	-0.12878	0.25345	0.001678	-0.029144	0.01358	-0.26672	-0.001984	-0.014954	0.034332	0.18356	0.14069	-0.17456	0.071869	-0.23773	-0.29877	0.29831	-0.000916	-0.029602	-0.007629	0.010071	-0.053864	0.002747	-0.009003
16.94	-0.003815	0.14923	-0.31906	0.010376	0.00473	0.000916	-0.168	0.012054	-0.06134	-0.12909	0.10773	0.004578	-0.065918	-0.079346	-0.11108	-0.009613	-0.2179	0.017853	0.27252	0.094604	0.61432	0.11154	-0.2179	-0.014801	0.62576	0.000458	-0.027618	-0.010529	-0.013123	-0.041962	-0.002136	-0.017853
16.941	0.003967	0.12482	-0.33081	0.000458	-0.003662	-0.006714	-0.20874	0.010529	-0.066376	-0.11978	-0.11093	0.00061	-0.006866	-0.03067	-0.20126	-0.00473	-0.24414	0.029449	0.25238	0.030518	0.9874	0.17212	-0.30762	0.26123	0.66162	-0.008545	-0.036163	-0.000305	-0.042419	-0.059204	0.000916	-0.022888
16.942	-0.005646	0.13534	-0.33661	-0.00412	-0.00412	-0.014954	-0.21957	0.012817	-0.062866	-0.02655	-0.000153	0.003204	-0.063324	0.10605	-0.10132	-0.002899	-0.23331	0.054016	0.33112	0.023956	1.039	0.14633	-0.37048	0.36819	0.60104	-0.000305	-0.046539	-0.002747	-0.047302	-0.056763	0.004272	-0.013123
16.943	-0.001678	0.10971	-0.34195	0.02655	0.00885	-0.018463	-0.25757	0.00824	-0.066223	0.11688	0.031586	0.009308	-0.11414	0.10117	0.097809	0.005188	-0.12375	0.09552	0.28336	-0.003815	0.5693	-0.15381	-0.15762	0.17746	0.22888	-0.001373	-0.026855	0.002289	-0.054169	-0.073242	0.000305	-0.013275
16.944	-0.001068	0.10681	-0.3331	0.012665	-0.01236	0.039673	-0.26779	0.012207	-0.074005	0.15396	-0.003204	-0.007019	-0.019226	-0.12131	0.12131	0.008698	-0.075684	0.19928	0.1503	-0.010986	0.26154	-0.32623	0.043335	-0.008392	0.098877	-0.000153	0.017548	-0.007782	-0.071259	-0.065613	0.005188	-0.010986
16.945	-0.003815	0.061646	-0.34347	-0.003815	-0.006256	0.043488	-0.27832	0.00351	-0.078583	0.096283	-0.096283	0.000763	0.159	-0.29953	-0.048218	0.003967	-0.077972	0.26321	0.12009	0.002899	0.1471	-0.3186	0.047607	-0.11429	-0.000916	0.007019	0.063629	-0.002747	-0.080414	-0.062256	0.00061	-0.009613
16.946	-0.005798	0.085602	-0.32883	-0.00885	-0.010071	0.017548	-0.32577	0.009613	-0.083618	0.092773	-0.079346	0.009155	0.1033	-0.24979	0.072021	-0.014954	-0.082703	0.32486	0.17197	-0.034027	0.11978	-0.33905	-0.080109	0.007782	0.000916	0.008392	0.092468	-0.009766	-0.064697	-0.032654	0.001373	-0.000916
16.947	-0.006714	0.13153	-0.33035	-0.002289	-0.007782	-0.021515	-0.34759	0.004578	-0.086517	0.051727	-0.020599	0.004578	-0.010223	-0.18097	0.072174	-0.022736	-0.084076	0.3212	0.25391	-0.037231	0.11749	-0.13992	-0.17242	0.058746	-0.061493	0.005341	0.076599	-0.013123	-0.029144	0.000153	0.000763	-0.00946
16.948	0.004425	0.031433	-0.32242	0	-0.013428	-0.007172	-0.34576	0.009918	-0.079498	-0.14221	0.015564	0.006409	-0.083618	-0.14358	-0.019226	-0.041656	-0.036926	0.34134	0.53619	-0.058899	0.20386	-0.019226	-0.14252	0.13763	-0.10513	0.000763	0.062408	-0.005035	-0.066833	-0.036469	-0.000916	0.000305
16.949	0.003662	0.022125	-0.32806	0.014954	-0.014496	-0.028687	-0.37689	0.000305	-0.08316	-0.1889	0.026398	0.005188	-0.099792	-0.067749	0.026245	-1.087	0.015564	0.29633	0.48782	-0.070038	0.19745	-0.19501	0.001068	0.14771	-0.13123	0	0.050049	-0.007782	-0.045013	-0.044556	-0.00061	-0.002594
16.95	-0.010529	0.015869	-0.35828	0.018616	-0.003967	-0.048218	-0.39154	0.006866	-0.078583	-0.17029	0.057983	0.005341	-0.11475	-0.000763	0.093689	0.58777	0.08194	0.25024	0.41031	0.001831	0.094452	-0.42267	0.098267	-0.025635	-0.14145	0.003052	0.026245	-0.01236	-0.009766	-0.041351	0.001984	0.001221
16.951	-0.000153	0.004883	-0.3598	0.019073	0.00824	-0.022278	-0.38849	0.018616	-0.075684	-0.17014	-0.033722	0.006256	-0.057068	0.053711	0.13855	0.094147	0.10986	0.30945	0.3743	0.023804	-0.043945	-0.34073	0.11688	-0.20783	-0.048828	0.005798	0.011444	-0.010223	-0.007477	-0.042114	0.001373	-0.009003
16.952	-0.000305	0.035706	-0.35446	0.008698	-0.001984	-0.020447	-0.42862	0.003815	-0.061493	-0.12985	-0.048523	0.003052	-0.017395	0.053864	0.083771	-0.11398	0.07782	0.34409	0.3186	0	-0.35004	0.000153	0.096741	-0.35065	-0.047455	0.001068	0.025787	-0.006409	-0.027313	-0.053558	-0.000153	-0.007782
16.953	0.006866	0.026245	-0.33478	0.005188	-0.005188	-0.015564	-0.45532	0.007019	-0.070496	-0.005035	-0.024567	0.003967	0.012817	0.045471	0.04303	-0.11643	0.10986	0.31174	0.36392	-0.003662	-0.46081	0.28931	0.075836	-0.38208	0.048981	-0.001221	0.033569	-0.008392	-0.022125	-0.031128	-0.001526	-0.008392
16.954	0.001984	0.045929	-0.33691	0.009155	-0.0177	-0.010681	-0.45166	0.005646	-0.065918	0.037384	-0.000763	0.007629	0.061035	-0.010986	0.030975	0.51712	0.12955	0.31006	0.29266	-0.001373	-0.001526	0.1976	0.15289	-0.3244	0.29327	0.002136	-0.002594	-0.003357	0.17517	-0.026245	0.001678	-0.01236
